<?xml version="1.0" encoding="UTF-8" standalone="no"?>
<!DOCTYPE svg PUBLIC "-//W3C//DTD SVG 1.1//EN" "http://www.w3.org/Graphics/SVG/1.1/DTD/svg11.dtd">
<!-- Created with Vectornator (http://vectornator.io/) -->
<svg height="100%" stroke-miterlimit="10" style="fill-rule:nonzero;clip-rule:evenodd;stroke-linecap:round;stroke-linejoin:round;" version="1.1" viewBox="0 0 40 40" width="100%" xml:space="preserve" xmlns="http://www.w3.org/2000/svg" xmlns:vectornator="http://vectornator.io" xmlns:xlink="http://www.w3.org/1999/xlink">
<defs/>
<g id="Layer-2" vectornator:layerName="Layer 2">
<path d="M1.35347 9.95383C1.35347 5.4562 4.99953 1.81014 9.49717 1.81014L30.2365 1.81014C34.7341 1.81014 38.3802 5.4562 38.3802 9.95383L38.3802 30.2346C38.3802 34.7322 34.7341 38.3783 30.2365 38.3783L9.49717 38.3783C4.99953 38.3783 1.35347 34.7322 1.35347 30.2346L1.35347 9.95383Z" fill="#a3a0b7" fill-rule="nonzero" opacity="1" stroke="#a3a0b7" stroke-linecap="butt" stroke-linejoin="miter" stroke-width="1.13921"/>
</g>
<g id="Layer-3-copy" vectornator:layerName="Layer 3 copy">
<path d="M5.97131 11.7224C5.96873 8.47782 8.61061 5.84543 11.8721 5.84283C15.1336 5.84023 17.7797 8.4684 17.7823 11.713C17.7849 14.9576 15.143 17.59 11.8815 17.5926C8.61997 17.5952 5.9739 14.967 5.97131 11.7224Z" fill="#f4006f" fill-rule="nonzero" opacity="1" stroke="#312481" stroke-linecap="butt" stroke-linejoin="miter" stroke-width="1.849" vectornator:layerName="Oval 1"/>
<path d="M21.9517 10.4589L33.5389 10.4589L33.5389 11.9214L21.9517 11.9214L21.9517 10.4589Z" fill="#10007b" fill-rule="nonzero" opacity="1" stroke="#312481" stroke-linecap="butt" stroke-linejoin="miter" stroke-width="1.849" vectornator:layerName="Rectangle 1"/>
<path d="M5.9893 28.7243C5.98671 25.4797 8.62859 22.8473 11.8901 22.8447C15.1516 22.8421 17.7977 25.4702 17.8003 28.7149C17.8029 31.9595 15.161 34.5919 11.8995 34.5945C9.66594 34.5962 7.72102 33.3643 6.71606 31.5454C6.25354 30.7083 5.99012 29.7469 5.9893 28.7243Z" fill="#a3a0b7" fill-rule="nonzero" opacity="1" stroke="#312481" stroke-linecap="butt" stroke-linejoin="miter" stroke-width="1.849" vectornator:layerName="Oval 1"/>
<path d="M22.097 28.1818L33.6842 28.1818L33.6842 29.4518L22.097 29.4518L22.097 28.1818Z" fill="#10007b" fill-rule="nonzero" opacity="1" stroke="#312481" stroke-linecap="butt" stroke-linejoin="miter" stroke-width="1.849" vectornator:layerName="Rectangle 1"/>
</g>
<g id="Layer-1" vectornator:layerName="Layer 1"/>
</svg>
