<?xml version="1.0" encoding="UTF-8" standalone="no"?>
<!DOCTYPE svg PUBLIC "-//W3C//DTD SVG 1.1//EN" "http://www.w3.org/Graphics/SVG/1.1/DTD/svg11.dtd">
<!-- Created with Vectornator (http://vectornator.io/) -->
<svg height="100%" stroke-miterlimit="10" style="fill-rule:nonzero;clip-rule:evenodd;stroke-linecap:round;stroke-linejoin:round;" version="1.1" viewBox="0 0 16 16" width="100%" xml:space="preserve" xmlns="http://www.w3.org/2000/svg" xmlns:vectornator="http://vectornator.io" xmlns:xlink="http://www.w3.org/1999/xlink">
<defs/>
<g id="Untitled" vectornator:layerName="Untitled">
<g opacity="1" vectornator:layerName="g">
<path d="M7 1L3 5L7 5L7 1Z" fill="#8bb4d0" fill-opacity="0.8" fill-rule="evenodd" opacity="1" stroke="none" vectornator:layerName="polygon"/>
<path d="M7 10L10 10L10 8L13 8L13 6L13 1L8 1L8 6L3 6L3 15L7 15L7 10Z" fill="#8bb4d0" fill-opacity="0.8" fill-rule="evenodd" opacity="1" stroke="none" vectornator:layerName="polygon"/>
</g>
</g>
<g id="Layer-1" vectornator:layerName="Layer 1">
<g opacity="1">
<path d="M9.81505 12.9501L8.8027 12.9501L8.8027 15.576L7.813 15.576L7.813 8.2729L9.88944 8.2729C10.3681 8.2729 10.7498 8.46118 11.0344 8.83773C11.319 9.21428 11.4613 9.79728 11.4613 10.5867C11.4613 11.4488 11.319 12.0582 11.0344 12.415C10.7498 12.7717 10.3433 12.9501 9.81505 12.9501ZM10.4749 10.5966C10.4749 10.2168 10.4096 9.94592 10.2792 9.78406C10.1487 9.62221 9.96598 9.54129 9.73096 9.54129L8.8027 9.54129L8.8027 11.6916L9.73096 11.6916C9.96598 11.6916 10.1487 11.6041 10.2792 11.429C10.4096 11.2539 10.4749 10.9765 10.4749 10.5966Z" fill="#f4e447" fill-rule="nonzero" opacity="1" stroke="#565656" stroke-linecap="butt" stroke-linejoin="round" stroke-width="0.203281"/>
<path d="M13.8256 11.1169L14.6471 11.4191C15.0072 11.5512 15.2789 11.7279 15.4622 11.9492C15.7468 12.2928 15.8891 12.7899 15.8891 13.4406C15.8891 14.1078 15.7225 14.6619 15.3894 15.1029C15.0563 15.5438 14.5857 15.7643 13.9776 15.7643C13.3566 15.7643 12.8683 15.5471 12.5125 15.1128C12.1567 14.6784 11.9788 14.0814 11.9788 13.3217L12.9297 13.3217C12.9599 13.6553 13.0192 13.9047 13.1076 14.0698C13.2693 14.3704 13.5464 14.5207 13.9388 14.5207C14.1738 14.5207 14.3647 14.4811 14.5113 14.4018C14.7894 14.2498 14.9285 13.9674 14.9285 13.5545C14.9285 13.3134 14.8595 13.1268 14.7215 12.9947C14.5835 12.8658 14.3668 12.7519 14.0714 12.6528L13.5669 12.4794C13.0709 12.3076 12.7281 12.121 12.5384 11.9195C12.2171 11.5826 12.0564 11.0558 12.0564 10.339C12.0564 9.68497 12.2117 9.14161 12.5222 8.70891C12.8327 8.2762 13.2887 8.05985 13.8903 8.05985C14.3927 8.05985 14.8212 8.26382 15.1759 8.67175C15.5306 9.07968 15.7166 9.67176 15.7339 10.448L14.7765 10.448C14.7593 10.0087 14.6342 9.69653 14.4013 9.51156C14.2461 9.38935 14.0531 9.32824 13.8224 9.32824C13.5658 9.32824 13.3609 9.40751 13.2079 9.56606C13.0548 9.72461 12.9782 9.94592 12.9782 10.23C12.9782 10.4909 13.0537 10.6858 13.2046 10.8146C13.3017 10.9005 13.5086 11.0013 13.8256 11.1169Z" fill="#f4e447" fill-rule="nonzero" opacity="1" stroke="#565656" stroke-linecap="butt" stroke-linejoin="round" stroke-width="0.203281"/>
</g>
</g>
</svg>
