<?xml version="1.0" encoding="UTF-8" standalone="no"?>
<!DOCTYPE svg PUBLIC "-//W3C//DTD SVG 1.1//EN" "http://www.w3.org/Graphics/SVG/1.1/DTD/svg11.dtd">
<!-- Created with Vectornator (http://vectornator.io/) -->
<svg height="100%" stroke-miterlimit="10" style="fill-rule:nonzero;clip-rule:evenodd;stroke-linecap:round;stroke-linejoin:round;" version="1.1" viewBox="0 0 40 40" width="100%" xml:space="preserve" xmlns="http://www.w3.org/2000/svg" xmlns:vectornator="http://vectornator.io" xmlns:xlink="http://www.w3.org/1999/xlink">
<defs/>
<g id="Layer-2" vectornator:layerName="Layer 2">
<path d="M1.35347 9.95383C1.35347 5.4562 4.99953 1.81014 9.49717 1.81014L30.2365 1.81014C34.7341 1.81014 38.3802 5.4562 38.3802 9.95383L38.3802 30.2346C38.3802 34.7322 34.7341 38.3783 30.2365 38.3783L9.49717 38.3783C4.99953 38.3783 1.35347 34.7322 1.35347 30.2346L1.35347 9.95383Z" fill="#c0bdd2" fill-rule="nonzero" opacity="1" stroke="#f4006f" stroke-linecap="butt" stroke-linejoin="miter" stroke-width="1.13921" vectornator:layerName="path"/>
</g>
<g id="Layer-3-copy" vectornator:layerName="Layer 3 copy">
<path d="M6.20412 9.31018C6.20253 7.3111 7.83025 5.68923 9.83974 5.68762C11.8492 5.68602 13.4795 7.3053 13.4811 9.30438C13.4827 11.3035 11.855 12.9253 9.84552 12.9269C7.83602 12.9285 6.20572 11.3093 6.20412 9.31018Z" fill="#f4006f" fill-rule="nonzero" opacity="1" stroke="#f4006f" stroke-linecap="butt" stroke-linejoin="miter" stroke-width="1.13921" vectornator:layerName="Oval 1"/>
<path d="M15.8172 8.74618L34.1599 8.74618L34.1599 9.49905L15.8172 9.49905L15.8172 8.74618Z" fill="#10007b" fill-rule="nonzero" opacity="1" stroke="#f4006f" stroke-linecap="butt" stroke-linejoin="miter" stroke-width="1.13921" vectornator:layerName="Rectangle 1"/>
<path d="M6.29367 20.1407C6.29207 18.1416 7.9198 16.5198 9.92929 16.5182C11.9388 16.5166 13.5691 18.1358 13.5707 20.1349C13.5723 22.134 11.9446 23.7559 9.93506 23.7575C7.92557 23.7591 6.29526 22.1398 6.29367 20.1407Z" fill="#c0bdd2" fill-rule="nonzero" opacity="1" stroke="#f4006f" stroke-linecap="butt" stroke-linejoin="miter" stroke-width="1.13921" vectornator:layerName="Oval 1"/>
<path d="M15.9067 19.5767L34.2494 19.5767L34.2494 20.3296L15.9067 20.3296L15.9067 19.5767Z" fill="#10007b" fill-rule="nonzero" opacity="1" stroke="#f4006f" stroke-linecap="butt" stroke-linejoin="miter" stroke-width="1.13921" vectornator:layerName="Rectangle 1"/>
<path d="M6.25963 30.9252C6.25804 28.9261 7.88576 27.3042 9.89525 27.3026C11.9047 27.301 13.535 28.9203 13.5366 30.9194C13.5382 32.9185 11.9105 34.5403 9.90102 34.5419C7.89153 34.5435 6.26122 32.9243 6.25963 30.9252Z" fill="#c0bdd2" fill-rule="nonzero" opacity="1" stroke="#f4006f" stroke-linecap="butt" stroke-linejoin="miter" stroke-width="1.13921" vectornator:layerName="Oval 1"/>
<path d="M15.8727 30.3612L34.2154 30.3612L34.2154 31.1141L15.8727 31.1141L15.8727 30.3612Z" fill="#10007b" fill-rule="nonzero" opacity="1" stroke="#f4006f" stroke-linecap="butt" stroke-linejoin="miter" stroke-width="1.13921" vectornator:layerName="Rectangle 1"/>
</g>
</svg>
