<?xml version="1.0" encoding="UTF-8" standalone="no"?>
<!DOCTYPE svg PUBLIC "-//W3C//DTD SVG 1.1//EN" "http://www.w3.org/Graphics/SVG/1.1/DTD/svg11.dtd">
<!-- Created with Vectornator (http://vectornator.io/) -->
<svg height="100%" stroke-miterlimit="10" style="fill-rule:nonzero;clip-rule:evenodd;stroke-linecap:round;stroke-linejoin:round;" version="1.1" viewBox="0 0 40 40" width="100%" xml:space="preserve" xmlns="http://www.w3.org/2000/svg" xmlns:vectornator="http://vectornator.io" xmlns:xlink="http://www.w3.org/1999/xlink">
<defs/>
<g id="Layer-2" vectornator:layerName="Layer 2">
<path d="M5.96886 1.81014L33.7648 1.81014C36.3138 1.81014 38.3802 3.87652 38.3802 6.42552L38.3802 33.7629C38.3802 36.3119 36.3138 38.3783 33.7648 38.3783L5.96886 38.3783C3.41985 38.3783 1.35347 36.3119 1.35347 33.7629L1.35347 6.42552C1.35347 3.87652 3.41985 1.81014 5.96886 1.81014Z" fill="#000000" fill-rule="nonzero" opacity="1" stroke="#f3e93e" stroke-linecap="butt" stroke-linejoin="miter" stroke-width="1.13921"/>
</g>
<g id="Layer-6" vectornator:layerName="Layer 6">
<g opacity="1">
<path d="M4.81023 5.10022L10.5327 5.08823C11.5628 5.08607 12.4976 5.21049 13.3373 5.4615C14.177 5.71251 14.8977 6.09566 15.4994 6.61093C16.1011 7.1262 16.5646 7.77364 16.8902 8.55325C17.2157 9.33286 17.3792 10.2502 17.3809 11.3052C17.3826 12.3603 17.2171 13.2783 16.8845 14.0593C16.552 14.8403 16.0856 15.4896 15.4856 16.0074C14.8856 16.5252 14.1613 16.9169 13.3129 17.1824C12.4645 17.448 11.5253 17.5818 10.4952 17.584L6.89004 17.5915L6.90716 28.4386L4.84707 28.443L4.81023 5.10022ZM6.88687 15.5804L10.3776 15.573C11.999 15.5696 13.2287 15.2044 14.0669 14.4773C14.905 13.7502 15.323 12.6943 15.3208 11.3095C15.3185 9.85886 14.8829 8.79923 14.0139 8.13066C13.145 7.46209 11.9284 7.12945 10.3643 7.13272L6.87355 7.14004L6.88687 15.5804Z" fill="#d2c70f" fill-rule="nonzero" opacity="0.995727" stroke="#d2c70f" stroke-linecap="round" stroke-linejoin="round" stroke-width="0.23629"/>
<path d="M27.7232 8.81079C27.2834 8.10835 26.7197 7.54354 26.0324 7.11637C25.345 6.6892 24.5149 6.47664 23.5421 6.47867C23.0461 6.47971 22.5408 6.56869 22.026 6.74561C21.5113 6.92253 21.0444 7.19277 20.6253 7.55632C20.2062 7.91986 19.8684 8.37666 19.6117 8.9267C19.3551 9.47674 19.2273 10.1254 19.2285 10.8727C19.2297 11.6201 19.3547 12.2352 19.6034 12.7183C19.8521 13.2013 20.1818 13.6127 20.5925 13.9526C21.0031 14.2924 21.4709 14.5717 21.9958 14.7904C22.5207 15.0091 23.0695 15.2277 23.6421 15.4463C24.3483 15.7086 25.0593 15.9929 25.775 16.2991C26.4908 16.6053 27.1353 17.0051 27.7083 17.4984C28.2813 17.9918 28.7496 18.6172 29.1133 19.3748C29.4769 20.1323 29.6596 21.0936 29.6614 22.2585C29.6633 23.4235 29.4694 24.4295 29.0797 25.2765C28.69 26.1236 28.1856 26.8225 27.5665 27.3733C26.9474 27.9241 26.2423 28.3322 25.4511 28.5976C24.6599 28.863 23.8637 28.9966 23.0626 28.9982C22.4522 28.9995 21.8417 28.9294 21.2311 28.7878C20.6204 28.6462 20.0383 28.4331 19.4847 28.1485C18.9311 27.8639 18.4155 27.5024 17.9379 27.0638C17.4603 26.6252 17.0399 26.1205 16.6766 25.5498L18.4481 24.0294C18.8882 24.8638 19.5045 25.5603 20.2969 26.1192C21.0894 26.678 22.0198 26.9563 23.088 26.954C23.603 26.953 24.1274 26.8585 24.6612 26.6705C25.195 26.4826 25.6762 26.1958 26.1048 25.8103C26.5334 25.4247 26.8855 24.9514 27.1612 24.3903C27.4369 23.8293 27.5742 23.1751 27.573 22.4277C27.5717 21.6145 27.4324 20.9389 27.1549 20.401C26.8775 19.863 26.5096 19.4132 26.0512 19.0515C25.5928 18.6898 25.0678 18.3887 24.4761 18.1481C23.8844 17.9076 23.2641 17.6671 22.6151 17.4267C21.9471 17.1863 21.2886 16.9129 20.6396 16.6066C19.9906 16.3002 19.4081 15.9003 18.8923 15.4068C18.3765 14.9134 17.9607 14.3043 17.6448 13.5796C17.3289 12.8549 17.1702 11.9651 17.1685 10.91C17.1667 9.78904 17.3607 8.82152 17.7505 8.00744C18.1402 7.19336 18.6494 6.5219 19.2781 5.99306C19.9067 5.46422 20.6023 5.07811 21.3649 4.83473C22.1276 4.59135 22.8808 4.46889 23.6247 4.46733C24.9981 4.46445 26.1717 4.74223 27.1454 5.30069C28.1191 5.85914 28.8545 6.52249 29.3517 7.29075L27.7232 8.81079Z" fill="#d2c70f" fill-rule="nonzero" opacity="0.995727" stroke="#d2c70f" stroke-linecap="round" stroke-linejoin="round" stroke-width="0.23629"/>
</g>
</g>
<g id="Layer-1" vectornator:layerName="Layer 1">
<g opacity="1">
<path d="M8.93061 33.2181C11.7797 33.2156 30.7913 33.1989 30.7913 33.1989" fill="none" stroke="#dbce00" stroke-linecap="butt" stroke-linejoin="round" stroke-width="0.830463"/>
<g fill="#dbce00" stroke="none">
<path d="M36.1893 33.1942C36.1879 31.5889 34.8854 30.2887 33.2802 30.2901C31.6749 30.2915 30.3747 31.594 30.3761 33.1993C30.3775 34.8045 31.68 36.1047 33.2853 36.1033C34.8905 36.1019 36.1907 34.7994 36.1893 33.1942ZM35.3589 33.1949C35.3599 34.3415 34.4312 35.2719 33.2845 35.2729C32.1379 35.2739 31.2076 34.3452 31.2066 33.1985C31.2056 32.0519 32.1343 31.1216 33.2809 31.1205C34.4275 31.1195 35.3579 32.0483 35.3589 33.1949Z" fill="#dbce00"/>
<path d="M3.5326 33.2228C3.534 34.8281 4.83648 36.1283 6.44176 36.1269C8.04705 36.1255 9.34724 34.823 9.34584 33.2177C9.34443 31.6124 8.04195 30.3122 6.43667 30.3136C4.83139 30.315 3.53119 31.6175 3.5326 33.2228ZM4.36306 33.2221C4.36205 32.0754 5.29077 31.1451 6.4374 31.1441C7.58403 31.1431 8.51437 32.0718 8.51537 33.2184C8.51638 34.365 7.58767 35.2954 6.44104 35.2964C5.29441 35.2974 4.36406 34.3687 4.36306 33.2221Z" fill="#dbce00"/>
</g>
</g>
<g opacity="1">
<path d="M33.193 9.34041C33.2053 11.6838 33.3054 30.875 33.3054 30.875" fill="none" stroke="#dbce00" stroke-linecap="butt" stroke-linejoin="round" stroke-width="0.830463"/>
<g fill="#dbce00" stroke="none">
<path d="M33.1649 3.94247C31.5596 3.95084 30.2651 5.25895 30.2735 6.86422C30.2818 8.46948 31.5899 9.76401 33.1952 9.75563C34.8005 9.74726 36.095 8.43915 36.0866 6.83389C36.0782 5.22863 34.7701 3.9341 33.1649 3.94247ZM33.1692 4.77292C34.3158 4.76694 35.2502 5.69161 35.2562 6.83822C35.2622 7.98484 34.3375 8.9192 33.1909 8.92518C32.0443 8.93116 31.1099 8.0065 31.1039 6.85988C31.0979 5.71327 32.0226 4.7789 33.1692 4.77292Z" fill="#dbce00"/>
</g>
</g>
</g>
</svg>
